<?xml version="1.0" encoding="utf-8"?>
<!-- Generator: Adobe Illustrator 15.0.0, SVG Export Plug-In . SVG Version: 6.00 Build 0)  -->
<!DOCTYPE svg PUBLIC "-//W3C//DTD SVG 1.1//EN" "http://www.w3.org/Graphics/SVG/1.1/DTD/svg11.dtd">
<svg version="1.1" id="图层_1" xmlns="http://www.w3.org/2000/svg" xmlns:xlink="http://www.w3.org/1999/xlink" x="0px" y="0px"
	 width="308px" height="48px" viewBox="0 0 308 48" enable-background="new 0 0 308 48" xml:space="preserve">
<g>
	<path fill="#231815" d="M112.682,37.663c0.957,0.187,2.215,0.371,4.699,0.371c9.939,0,16.946-4.895,17.651-11.773
		c1.022-9.942-5.193-13.42-15.667-13.36c-1.356,0-3.241,0-4.239,0.184L112.682,37.663z M104.472,4.949
		c2.815-0.307,7.14-0.617,13.091-0.617c9.936,0,17.968,1.731,22.942,5.375c4.468,3.395,7.44,8.892,6.619,16.86
		c-0.763,7.413-4.61,12.604-10.211,15.813c-5.126,3.029-11.585,4.321-21.299,4.321c-5.725,0-11.188-0.312-15.344-0.929
		L104.472,4.949z"/>
	<path fill="#231815" d="M154.297,5.986c39.45-7.45,42.853,5.936,41.633,17.784l-2.296,21.916h-12.522l2.096-19.987
		c0.453-4.403,3.275-13.013-10.347-12.688c-4.714,0.114-7.05,0.761-7.05,0.761s-0.408,5.32-0.907,9.25l-2.376,22.666h-12.279
		l2.438-22.338"/>
	<path fill="#CA0915" d="M44.902,45.913c-2.359,0.818-7.246,1.377-14.076,1.377c-19.64,0-30.238-9.233-28.985-21.439
		c1.5-14.545,17.202-22.729,34.396-22.729c6.66,0,10.58,0.538,14.254,1.438l-1.18,9.798c-2.443-0.825-8.169-1.581-12.805-1.581
		c-10.116,0-18.708,3.019-19.694,12.565c-0.879,8.54,5.153,12.621,16.534,12.621c3.96,0,9.802-0.567,12.502-1.389L44.902,45.913z"/>
	<path fill="#231815" d="M52.486,35.706c3.609,1.319,11.135,2.634,17.222,2.634c6.557,0,10.208-1.82,10.5-4.644
		c0.267-2.576-2.42-2.923-9.826-4.682C60.15,26.502,53.62,22.61,54.26,16.397C55.003,9.178,64.648,3.722,79.444,3.722
		c7.214,0,14.209,0.508,17.833,1.7l-1.245,9.101c-2.352-0.818-11.357-1.956-17.448-1.956c-6.176,0-9.372,1.945-9.593,4.08
		c-0.279,2.7,2.931,2.826,10.955,4.963c10.862,2.76,15.614,6.649,14.994,12.674c-0.729,7.093-9.407,13.121-26.731,13.121
		c-7.212,0-13.428-1.319-16.854-2.635L52.486,35.706z"/>
	<g enable-background="new    ">
		<path fill="#333333" d="M235.091,28.537l8.635-4.877H222.33v-3.377h26.65v3.752l-10.323,6.004v0.938h19.706v3.379h-19.706v6.38
			c0.249,3.754-1.688,5.631-5.817,5.631c-2.252,0-4.382,0-6.381,0c0-0.375-0.126-0.877-0.376-1.501
			c-0.126-1.127-0.252-1.941-0.375-2.44c1.877,0.123,4.064,0.188,6.568,0.188c2,0.123,2.938-0.688,2.814-2.439v-5.817h-21.394
			v-3.379h21.394V28.537z M215.386,12.212h41.476v9.571h-3.752V15.59h-34.157v6.194h-3.566V12.212z M218.952,5.081l2.628-1.878
			c1.125,1.253,2.748,3.192,4.879,5.818c0.249,0.375,0.437,0.627,0.563,0.75l-3.002,2.253
			C222.392,9.649,220.702,7.333,218.952,5.081z M231.149,3.767l3.004-1.689c1.502,1.877,3.19,4.318,5.066,7.319l-3.19,1.878
			C234.904,9.148,233.276,6.647,231.149,3.767z M243.912,9.772c2.376-2.375,4.378-4.691,6.006-6.943l3.002,2.064
			c-1.876,2.504-3.879,4.879-6.005,7.131L243.912,9.772z"/>
		<path fill="#333333" d="M276.756,31.915c0.123,4.631-1.755,6.944-5.63,6.944c-1.128,0.126-2.191,0.187-3.192,0.187
			c-0.126-0.249-0.252-0.686-0.375-1.313c0-0.624-0.187-1.376-0.563-2.253v11.073h-3.192V4.892h12.577v3.19
			c-0.753,3.129-1.941,7.257-3.567,12.386C275.564,23.974,276.879,27.786,276.756,31.915z M266.996,8.083v27.21
			c1.249,0.126,2.501,0.187,3.753,0.187c1.877-0.123,2.75-1.313,2.627-3.565c0-3.754-1.378-7.378-4.129-10.882
			c1-3.378,2.188-7.694,3.566-12.95L266.996,8.083L266.996,8.083z M277.506,25.724h27.775v3.001h-9.008v11.072
			c-0.126,1.751,0.563,2.501,2.064,2.253h1.688c1.625,0.123,2.501-0.439,2.627-1.69c0.375-1.876,0.563-3.875,0.563-6.004
			c0.376,0.126,1,0.313,1.878,0.563c0.75,0.375,1.313,0.628,1.688,0.751c-0.127,1.003-0.313,2.316-0.562,3.941
			c-0.127,0.749-0.188,1.313-0.188,1.688c-0.376,2.876-2.439,4.252-6.192,4.129h-2.253c-3.378,0.123-5.006-1.439-4.88-4.692v-12.01
			h-4.879c0.249,8.008-3.693,13.888-11.823,17.641c-0.752-1.003-1.565-1.94-2.439-2.814c7.755-2.877,11.384-7.819,10.885-14.826
			h-6.944V25.724L277.506,25.724z M277.694,8.083h12.574c-0.503-1.502-1.127-3.251-1.878-5.255l3.19-0.938
			c0.123,0.376,0.376,1.004,0.752,1.877c0.499,1.501,0.938,2.691,1.313,3.565l-2.441,0.751h13.514v7.32h-3.377v-4.318h-20.271v4.318
			h-3.377V8.083L277.694,8.083z M279.57,16.904h23.458v3.002H279.57V16.904z"/>
	</g>
</g>
</svg>
