<?xml version="1.0" encoding="utf-8"?>
<!-- Generator: Adobe Illustrator 15.0.0, SVG Export Plug-In . SVG Version: 6.00 Build 0)  -->
<!DOCTYPE svg PUBLIC "-//W3C//DTD SVG 1.1//EN" "http://www.w3.org/Graphics/SVG/1.1/DTD/svg11.dtd">
<svg version="1.1" id="图层_1" xmlns="http://www.w3.org/2000/svg" xmlns:xlink="http://www.w3.org/1999/xlink" x="0px" y="0px"
	 width="640px" height="480px" viewBox="0 0 640 480" enable-background="new 0 0 640 480" xml:space="preserve">
<g>
	<path fill="#231815" d="M280.313,234.955c0.965,0.188,2.233,0.374,4.737,0.374c10.018,0,17.081-4.934,17.792-11.867
		c1.03-10.022-5.235-13.528-15.792-13.467c-1.367,0-3.267,0-4.273,0.185L280.313,234.955z M272.037,201.98
		c2.838-0.309,7.197-0.622,13.196-0.622c10.015,0,18.112,1.745,23.124,5.418c4.504,3.422,7.5,8.963,6.672,16.995
		c-0.767,7.472-4.645,12.705-10.293,15.94c-5.167,3.052-11.677,4.356-21.469,4.356c-5.771,0-11.278-0.313-15.466-0.935
		L272.037,201.98z"/>
	<path fill="#231815" d="M322.261,203.025c39.763-7.51,43.195,5.984,41.966,17.926l-2.316,22.091h-12.621l2.112-20.147
		c0.456-4.438,3.301-13.117-10.428-12.79c-4.751,0.114-7.108,0.767-7.108,0.767s-0.411,5.362-0.914,9.324l-2.393,22.847H318.18
		l2.457-22.517"/>
	<path fill="#CA0915" d="M211.992,243.271c-2.378,0.825-7.304,1.388-14.188,1.388c-19.796,0-30.48-9.307-29.216-21.61
		c1.512-14.662,17.339-22.911,34.671-22.911c6.713,0,10.664,0.542,14.368,1.45l-1.189,9.877c-2.463-0.832-8.235-1.594-12.907-1.594
		c-10.197,0-18.857,3.043-19.851,12.666c-0.886,8.607,5.194,12.722,16.666,12.722c3.992,0,9.88-0.573,12.602-1.401L211.992,243.271z
		"/>
	<path fill="#231815" d="M219.636,232.982c3.638,1.33,11.224,2.655,17.359,2.655c6.61,0,10.29-1.835,10.584-4.68
		c0.269-2.597-2.439-2.947-9.904-4.719c-10.313-2.533-16.896-6.456-16.25-12.719c0.749-7.276,10.471-12.776,25.385-12.776
		c7.272,0,14.323,0.512,17.975,1.714l-1.254,9.173c-2.371-0.825-11.448-1.972-17.587-1.972c-6.225,0-9.447,1.961-9.67,4.112
		c-0.282,2.722,2.954,2.849,11.042,5.003c10.949,2.782,15.738,6.702,15.113,12.776c-0.735,7.149-9.482,13.224-26.944,13.224
		c-7.27,0-13.536-1.33-16.989-2.656L219.636,232.982z"/>
	<text transform="matrix(1 0 0 1 380.4316 236.9072)" fill="#333333" font-family="'FZLTHJW--GB1-0'" font-size="48.428">学院</text>
</g>
</svg>
