<?xml version="1.0" encoding="utf-8"?>
<!-- Generator: Adobe Illustrator 15.0.0, SVG Export Plug-In . SVG Version: 6.00 Build 0)  -->
<!DOCTYPE svg PUBLIC "-//W3C//DTD SVG 1.1//EN" "http://www.w3.org/Graphics/SVG/1.1/DTD/svg11.dtd">
<svg version="1.1" id="图层_1" xmlns="http://www.w3.org/2000/svg" xmlns:xlink="http://www.w3.org/1999/xlink" x="0px" y="0px"
	 width="352px" height="416px" viewBox="0 0 352 416" enable-background="new 0 0 352 416" xml:space="preserve">
<g>
	<path fill="none" stroke="#555555" stroke-width="2" stroke-linecap="round" stroke-linejoin="round" stroke-miterlimit="10" d="
		M206,57.705L199.756,50c0,0-12.998-0.272-16.756,21h27.712"/>
	<path fill="none" stroke="#555555" stroke-width="2" stroke-linecap="round" stroke-linejoin="round" stroke-miterlimit="10" d="
		M210.712,71H229c-3.758-21.272-16.756-21-16.756-21L206,57.705"/>
	
		<circle fill="none" stroke="#555555" stroke-width="2" stroke-linecap="round" stroke-linejoin="round" stroke-miterlimit="10" cx="206" cy="36.5" r="11.5"/>
</g>
<g>
	
		<path fill="#00CFBE" stroke="#00CFBE" stroke-width="2" stroke-linecap="round" stroke-linejoin="round" stroke-miterlimit="10" d="
		M146,57.705L139.756,50c0,0-12.998-0.272-16.756,21h27.712"/>
	
		<path fill="#00CFBE" stroke="#00CFBE" stroke-width="2" stroke-linecap="round" stroke-linejoin="round" stroke-miterlimit="10" d="
		M150.712,71H169c-3.758-21.272-16.756-21-16.756-21L146,57.705"/>
	
		<circle fill="#00CFBE" stroke="#00CFBE" stroke-width="2" stroke-linecap="round" stroke-linejoin="round" stroke-miterlimit="10" cx="146" cy="36.5" r="11.5"/>
</g>
<g>
	<rect x="121" y="193" fill="#00CFBE" width="48" height="36"/>
	<rect x="123" y="195" fill="#00CFBE" width="44" height="32"/>
	<path fill="#00CFBE" d="M147.531,231.322c0.812,0,1.474,0.662,1.474,1.473v1.475c0,0.813,0.527,1.873,1.181,2.359l3.535,2.654
		c0.648,0.486,0.518,0.885-0.293,0.885h-17.688c-0.812,0-0.947-0.398-0.293-0.885l3.535-2.654c0.647-0.486,1.18-1.547,1.18-2.359
		v-1.475c0-0.811,0.662-1.473,1.474-1.473H147.531z"/>
	<path fill-rule="evenodd" clip-rule="evenodd" fill="#FFFFFF" d="M138.938,217.627v-13.219c0-1.429,1.521-2.34,2.775-1.662
		l12.234,6.609c1.32,0.713,1.32,2.612,0,3.325l-12.234,6.608C140.459,219.967,138.938,219.056,138.938,217.627z"/>
</g>
<g>
	
		<circle fill="none" stroke="#555555" stroke-width="2" stroke-linecap="round" stroke-linejoin="round" stroke-miterlimit="10" cx="201" cy="151.5" r="4.5"/>
	
		<circle fill="none" stroke="#555555" stroke-width="2" stroke-linecap="round" stroke-linejoin="round" stroke-miterlimit="10" cx="223" cy="151.5" r="4.5"/>
	
		<polyline fill="none" stroke="#555555" stroke-width="2" stroke-linecap="round" stroke-linejoin="round" stroke-miterlimit="10" points="
		195,119 231,119 226.881,143 198.043,143 191.864,110 184,110 	"/>
</g>
<g>
	
		<circle fill="#00CFBE" stroke="#00CFBE" stroke-width="2" stroke-linecap="round" stroke-linejoin="round" stroke-miterlimit="10" cx="134" cy="148.5" r="4.5"/>
	
		<circle fill="#00CFBE" stroke="#00CFBE" stroke-width="2" stroke-linecap="round" stroke-linejoin="round" stroke-miterlimit="10" cx="156" cy="148.5" r="4.5"/>
	<polyline fill="#00CFBE" points="127,116 164,116 159.902,140 131.217,140 126.862,116.092 	"/>
	
		<polyline fill="none" stroke="#00CFBE" stroke-width="2" stroke-linecap="round" stroke-linejoin="round" stroke-miterlimit="10" points="
		127,116 164,116 159.88,140 131.043,140 124.864,107 117,107 	"/>
</g>
<g>
	<path fill="none" stroke="#555555" stroke-width="2" stroke-linecap="round" stroke-linejoin="round" stroke-miterlimit="10" d="
		M210.124,264.914c-3.117,0-21.5,15.922-21.5,15.922v26.827c0,1.245,1.069,2.251,2.385,2.251h10.667v-12.611
		c0-4.406,3.783-7.975,8.448-7.975c4.668,0,8.448,3.568,8.448,7.975v12.611h10.668c1.314,0,2.384-1.006,2.384-2.251v-26.827
		C231.624,280.836,213.242,264.914,210.124,264.914z"/>
</g>
<g>
	
		<path fill="#00CFBE" stroke="#00CFBE" stroke-width="2" stroke-linecap="round" stroke-linejoin="round" stroke-miterlimit="10" d="
		M143.124,263.914c-3.117,0-21.5,15.922-21.5,15.922v26.827c0,1.245,1.069,2.251,2.385,2.251h10.667v-12.611
		c0-4.406,3.783-7.975,8.449-7.975c4.668,0,8.448,3.568,8.448,7.975v12.611h10.667c1.315,0,2.384-1.006,2.384-2.251v-26.827
		C164.624,279.836,146.243,263.914,143.124,263.914z"/>
</g>
<g>
	<polygon fill="none" stroke="#555555" stroke-width="2" stroke-miterlimit="10" points="210,374 187.792,358.792 210,343.584 
		232.208,358.792 	"/>
	<polygon fill="#555555" stroke="#555555" stroke-miterlimit="10" points="210,380 189.252,365.791 187.792,366.791 210,382 
		232.208,366.791 230.748,365.791 	"/>
	<polygon fill="#555555" stroke="#555555" stroke-miterlimit="10" points="210,388 189.252,373.791 187.792,374.791 210,390 
		232.208,374.791 230.748,373.791 	"/>
</g>
<g>
	<polygon fill="#00CFBE" stroke="#00CFBE" stroke-width="2" stroke-miterlimit="10" points="143,375 120.792,359.792 143,344.584 
		165.208,359.792 	"/>
	<polygon fill="#00CFBE" stroke="#00CFBE" stroke-miterlimit="10" points="143,381 122.252,366.791 120.792,367.791 143,383 
		165.208,367.791 163.748,366.791 	"/>
	<polygon fill="#00CFBE" stroke="#00CFBE" stroke-miterlimit="10" points="143,389 122.252,374.791 120.792,375.791 143,391 
		165.208,375.791 163.748,374.791 	"/>
</g>
<g>
	<path fill="none" stroke="#555555" stroke-width="2" stroke-miterlimit="10" d="M213.584,231.641c0.812,0,1.473,0.662,1.473,1.475
		v1.474c0,0.813,0.527,1.872,1.182,2.358l3.535,2.654c0.647,0.487,0.518,0.886-0.294,0.886h-17.688
		c-0.812,0-0.947-0.398-0.294-0.886l3.535-2.654c0.648-0.486,1.181-1.545,1.181-2.358v-1.474c0-0.813,0.662-1.475,1.474-1.475
		H213.584z"/>
	<path fill-rule="evenodd" clip-rule="evenodd" fill="none" stroke="#555555" stroke-width="2" stroke-miterlimit="10" d="
		M204.99,217.945v-13.218c0-1.429,1.521-2.34,2.775-1.662L220,209.675c1.32,0.713,1.32,2.612,0,3.325l-12.234,6.609
		C206.512,220.286,204.99,219.375,204.99,217.945z"/>
	<path fill="#555555" d="M187,193v36h48v-36H187z M233,227h-44v-32h44V227z"/>
</g>
</svg>
