<?xml version="1.0" encoding="utf-8"?>
<!-- Generator: Adobe Illustrator 15.0.0, SVG Export Plug-In . SVG Version: 6.00 Build 0)  -->
<!DOCTYPE svg PUBLIC "-//W3C//DTD SVG 1.1//EN" "http://www.w3.org/Graphics/SVG/1.1/DTD/svg11.dtd">
<svg version="1.1" id="图层_1" xmlns="http://www.w3.org/2000/svg" xmlns:xlink="http://www.w3.org/1999/xlink" x="0px" y="0px"
	 width="640px" height="480px" viewBox="0 0 640 480" enable-background="new 0 0 640 480" xml:space="preserve">
<g>
	<path fill="#231815" d="M280.313,234.955c0.965,0.188,2.233,0.374,4.737,0.374c10.018,0,17.081-4.934,17.792-11.867
		c1.03-10.022-5.235-13.528-15.792-13.467c-1.367,0-3.267,0-4.273,0.185L280.313,234.955z M272.037,201.98
		c2.838-0.309,7.197-0.622,13.196-0.622c10.015,0,18.112,1.745,23.125,5.418c4.504,3.422,7.5,8.963,6.672,16.995
		c-0.768,7.472-4.646,12.705-10.293,15.94c-5.167,3.053-11.677,4.355-21.469,4.355c-5.771,0-11.278-0.313-15.466-0.935
		L272.037,201.98z"/>
	<path fill="#231815" d="M322.261,203.025c39.764-7.51,43.195,5.984,41.966,17.926l-2.315,22.091H349.29l2.112-20.147
		c0.456-4.438,3.301-13.117-10.429-12.79c-4.751,0.114-7.107,0.767-7.107,0.767s-0.411,5.362-0.914,9.324l-2.394,22.847H318.18
		l2.457-22.517"/>
	<path fill="#CA0915" d="M211.992,243.271c-2.378,0.824-7.304,1.388-14.188,1.388c-19.796,0-30.48-9.307-29.216-21.61
		c1.512-14.662,17.339-22.911,34.671-22.911c6.713,0,10.664,0.542,14.368,1.45l-1.189,9.877c-2.463-0.832-8.235-1.594-12.907-1.594
		c-10.197,0-18.857,3.043-19.851,12.666c-0.886,8.607,5.194,12.722,16.666,12.722c3.992,0,9.88-0.573,12.602-1.401L211.992,243.271z
		"/>
	<path fill="#231815" d="M219.636,232.982c3.638,1.33,11.224,2.655,17.359,2.655c6.61,0,10.29-1.835,10.584-4.68
		c0.269-2.597-2.439-2.947-9.904-4.719c-10.313-2.533-16.896-6.456-16.25-12.719c0.749-7.276,10.471-12.776,25.385-12.776
		c7.272,0,14.323,0.512,17.975,1.714l-1.254,9.173c-2.371-0.825-11.448-1.972-17.587-1.972c-6.225,0-9.447,1.961-9.67,4.112
		c-0.282,2.722,2.954,2.849,11.042,5.003c10.949,2.782,15.738,6.702,15.113,12.776c-0.735,7.149-9.482,13.225-26.944,13.225
		c-7.27,0-13.536-1.33-16.989-2.656L219.636,232.982z"/>
	<g enable-background="new    ">
		<path fill="#333333" d="M403.699,224.044l8.703-4.919h-21.566v-3.405h26.863v3.783l-10.405,6.054v0.946h19.863v3.405h-19.863
			v6.432c0.251,3.783-1.702,5.675-5.864,5.675c-2.27,0-4.416,0-6.432,0c0-0.378-0.127-0.884-0.379-1.513
			c-0.127-1.136-0.254-1.957-0.378-2.46c1.892,0.124,4.097,0.189,6.621,0.189c2.016,0.124,2.962-0.694,2.837-2.459v-5.864h-21.564
			v-3.405h21.564V224.044z M383.837,207.586h41.807v9.647h-3.783v-6.243h-34.429v6.243h-3.595V207.586z M387.432,200.397
			l2.648-1.893c1.135,1.263,2.771,3.217,4.918,5.865c0.251,0.378,0.44,0.632,0.567,0.756l-3.026,2.271
			C390.898,205.002,389.195,202.667,387.432,200.397z M399.727,199.073l3.027-1.703c1.514,1.892,3.216,4.352,5.107,7.378
			l-3.216,1.892C403.511,204.497,401.87,201.976,399.727,199.073z M412.591,205.126c2.394-2.394,4.413-4.729,6.054-6.999
			l3.026,2.081c-1.892,2.524-3.91,4.918-6.054,7.188L412.591,205.126z"/>
		<path fill="#333333" d="M445.696,227.448c0.124,4.668-1.768,7-5.675,7c-1.136,0.127-2.209,0.188-3.217,0.188
			c-0.127-0.251-0.254-0.691-0.378-1.324c0-0.629-0.188-1.386-0.567-2.27v11.161h-3.217v-41.996h12.676v3.216
			c-0.758,3.154-1.957,7.315-3.595,12.485C444.496,219.441,445.82,223.287,445.696,227.448z M435.859,203.424v27.43
			c1.259,0.127,2.521,0.189,3.783,0.189c1.892-0.124,2.772-1.324,2.648-3.595c0-3.783-1.389-7.439-4.162-10.972
			c1.008-3.405,2.205-7.756,3.595-13.053H435.859z M446.453,221.206h27.997v3.026h-9.08v11.161
			c-0.127,1.765,0.567,2.521,2.081,2.271h1.702c1.638,0.124,2.521-0.443,2.648-1.703c0.378-1.892,0.567-3.907,0.567-6.053
			c0.379,0.127,1.008,0.316,1.893,0.567c0.756,0.378,1.324,0.633,1.702,0.757c-0.128,1.011-0.316,2.335-0.567,3.973
			c-0.127,0.756-0.189,1.324-0.189,1.702c-0.379,2.899-2.459,4.286-6.242,4.162h-2.271c-3.405,0.124-5.046-1.451-4.919-4.729
			v-12.107h-4.918c0.251,8.072-3.722,13.999-11.918,17.782c-0.757-1.011-1.578-1.956-2.459-2.837
			c7.818-2.9,11.475-7.881,10.972-14.945h-6.999V221.206z M446.643,203.424h12.674c-0.506-1.514-1.135-3.278-1.892-5.297
			l3.216-0.946c0.124,0.379,0.379,1.012,0.757,1.893c0.503,1.513,0.946,2.713,1.324,3.594l-2.46,0.757h13.621v7.378h-3.405v-4.352
			h-20.431v4.352h-3.404V203.424z M448.533,212.314h23.646v3.027h-23.646V212.314z"/>
	</g>
</g>
</svg>
