<?xml version="1.0" encoding="utf-8"?>
<!-- Generator: Adobe Illustrator 15.0.0, SVG Export Plug-In . SVG Version: 6.00 Build 0)  -->
<!DOCTYPE svg PUBLIC "-//W3C//DTD SVG 1.1//EN" "http://www.w3.org/Graphics/SVG/1.1/DTD/svg11.dtd">
<svg version="1.1" id="图层_1" xmlns="http://www.w3.org/2000/svg" xmlns:xlink="http://www.w3.org/1999/xlink" x="0px" y="0px"
	 width="300px" height="300px" viewBox="0 0 300 300" enable-background="new 0 0 300 300" xml:space="preserve">
<g>
	<path fill="#555555" d="M189.859,183.311l-12.068-12.066c-0.121-0.125-0.281-0.176-0.416-0.277
		c11.754-14.041,11.053-35.042-2.137-48.232c-6.758-6.757-15.74-10.479-25.298-10.479c-9.561,0-18.543,3.722-25.299,10.479
		c-13.95,13.952-13.95,36.65,0,50.602c6.756,6.759,15.738,10.479,25.299,10.479c8.486,0,16.51-2.945,22.937-8.334
		c0.093,0.131,0.146,0.287,0.268,0.41l12.07,12.067c0.641,0.642,1.482,0.96,2.322,0.96s1.682-0.318,2.322-0.96
		C191.143,186.675,191.143,184.592,189.859,183.311"/>
	<path fill="#FFFFFF" d="M149.9,179.063c-8.261,0-16.021-3.215-21.856-9.051c-12.051-12.051-12.051-31.657,0-43.711
		c5.835-5.833,13.596-9.05,21.856-9.05c8.25,0,16.014,3.217,21.854,9.05c12.046,12.054,12.046,31.661,0,43.711
		C165.911,175.848,158.15,179.063,149.9,179.063"/>
</g>
</svg>
