<?xml version="1.0" encoding="utf-8"?>
<!-- Generator: Adobe Illustrator 15.0.0, SVG Export Plug-In . SVG Version: 6.00 Build 0)  -->
<!DOCTYPE svg PUBLIC "-//W3C//DTD SVG 1.1//EN" "http://www.w3.org/Graphics/SVG/1.1/DTD/svg11.dtd">
<svg version="1.1" id="图层_1" xmlns="http://www.w3.org/2000/svg" xmlns:xlink="http://www.w3.org/1999/xlink" x="0px" y="0px"
	 width="300px" height="300px" viewBox="0 0 300 300" enable-background="new 0 0 300 300" xml:space="preserve">
<g>
	<path fill="#00EDDA" d="M133.916,130.917c-2.06,0-3.737,1.676-3.737,3.738v32.689c0,2.063,1.677,3.738,3.737,3.738h32.692
		c2.061,0,3.736-1.676,3.736-3.738v-32.689c0-2.063-1.676-3.738-3.736-3.738H133.916z"/>
	<path fill="#FFFFFF" d="M146.985,165.998l11.111-13.334c0.516-0.617,0.516-1.516,0-2.133l-11.111-13.333
		c-0.589-0.708-1.64-0.803-2.347-0.214c-0.708,0.589-0.803,1.641-0.213,2.347l11.111,13.333v-2.133l-11.111,13.333
		c-0.59,0.706-0.495,1.758,0.213,2.347C145.345,166.801,146.396,166.705,146.985,165.998z"/>
</g>
</svg>
